<?xml version="1.0" encoding="utf-8"?>
<!-- Generator: Adobe Illustrator 26.3.1, SVG Export Plug-In . SVG Version: 6.00 Build 0)  -->
<svg version="1.1" id="Capa_1" xmlns="http://www.w3.org/2000/svg" xmlns:xlink="http://www.w3.org/1999/xlink" x="0px" y="0px"
	 viewBox="0 0 600 375.7" style="enable-background:new 0 0 600 375.7;" xml:space="preserve">
<style type="text/css">
	.st0{fill:#FFFFFF;}
	.st1{fill:#FFA61D;}
	.st2{fill:#0086AD;}
	.st3{fill:#222221;}
</style>
<g>
	<g>
		
			<image style="overflow:visible;opacity:0.22;" width="993" height="579" xlink:href="64E793A2BD17E6F8.png"  transform="matrix(0.24 0 0 0.24 307.8 100.2)">
		</image>
		<g>
			
				<rect x="387" y="68.7" transform="matrix(0.1716 -0.9852 0.9852 0.1716 186.8841 557.616)" class="st0" width="76" height="197.9"/>
		</g>
	</g>
	<g>
		
			<image style="overflow:visible;opacity:0.22;" width="1445" height="777" xlink:href="64E793A2BD17E6FE.png"  transform="matrix(0.24 0 0 0.24 33.48 12.12)">
		</image>
		<g>
			
				<rect x="53.6" y="50" transform="matrix(0.9855 -0.1695 0.1695 0.9855 -14.552 36.2222)" class="st1" width="302.7" height="106.7"/>
		</g>
	</g>
	<g>
		
			<image style="overflow:visible;opacity:0.22;" width="1223" height="643" xlink:href="64E793A2BD17E6FA.png"  transform="matrix(0.24 0 0 0.24 224.28 195.24)">
		</image>
		<g>
			
				<rect x="238.2" y="210.2" transform="matrix(0.9999 -1.348757e-02 1.348757e-02 0.9999 -3.6133 5.0018)" class="st2" width="261.7" height="120.4"/>
		</g>
	</g>
</g>
<g>
	<path class="st0" d="M100.4,135.4l11.8-1.7l1.1-0.1c0,0,0.2,0.9,0.3,1.3l0.1,0.3c0.8,4.7,0.7,9-0.4,12.9c-1.1,3.9-3.1,7.1-5.9,9.6
		c-2.8,2.5-6.3,4.1-10.5,4.8c-4.2,0.7-8,0.4-11.5-1.1c-3.5-1.4-6.5-3.8-8.8-7.2c-2.4-3.4-4-7.5-4.8-12.3l-5.4-30.6
		c-0.8-4.8-0.7-9.1,0.4-13.1c1.1-3.9,3.1-7.2,5.9-9.7c2.8-2.5,6.3-4.2,10.5-4.9c4.1-0.7,8-0.4,11.5,1c3.5,1.4,6.4,3.7,8.8,6.9
		c2.4,3.2,3.9,7.2,4.8,11.9l0.1,0.6l0,0c0-0.1,0.3,1.4,0.3,1.4l-11.7,2.7l-0.9,0.2l-0.6-2.7c-0.5-3-1.7-5.3-3.5-6.9
		c-1.8-1.6-3.9-2.2-6.3-1.7c-2.4,0.4-4.2,1.7-5.4,3.8c-1.1,2.1-1.5,4.6-0.9,7.7l5.6,32.3c0.5,3,1.7,5.3,3.5,6.8
		c1.8,1.5,3.9,2.1,6.3,1.7c2.4-0.4,4.2-1.7,5.4-3.7c1.2-2.1,1.5-4.6,0.9-7.6"/>
	<path class="st0" d="M134.4,152.9c-3.6-1.5-6.6-4-9-7.4c-2.4-3.4-4.1-7.7-4.9-12.6l-5.1-29.3c-0.9-4.9-0.7-9.4,0.4-13.5
		c1.1-4.1,3.1-7.4,5.9-10c2.8-2.6,6.4-4.3,10.6-5c4.2-0.7,8.1-0.4,11.7,1.1c3.6,1.5,6.6,4,9,7.4c2.4,3.4,4.1,7.6,4.9,12.5l5.1,29.3
		c0.9,5,0.8,9.5-0.4,13.6c-1.1,4.1-3.1,7.4-6,10c-2.9,2.6-6.4,4.3-10.6,5C141.9,154.8,138,154.4,134.4,152.9z M149.4,136.6
		c1.2-2.3,1.5-5,0.9-8.3L145,97.9c-0.6-3.3-1.8-5.8-3.7-7.6c-1.9-1.8-4.1-2.4-6.7-2c-2.5,0.4-4.3,1.8-5.5,4.1
		c-1.2,2.3-1.5,5.1-0.9,8.4l5.3,30.4c0.6,3.2,1.8,5.7,3.7,7.5c1.9,1.8,4.1,2.4,6.6,2C146.3,140.3,148.2,138.9,149.4,136.6z
		 M139.5,57.4L136,70.3l-2.5,0.5l-7.3,1.3l-1.4,0.2l0.4-1.7l3.3-12.2l0.2-1l11.4-1.7"/>
	<path class="st0" d="M176.1,147.4c-0.3-0.2-0.4-0.5-0.5-0.9l-13-74.5c-0.1-0.4,0-0.7,0.2-1c0.2-0.3,0.4-0.5,0.7-0.5l19.7-3.4
		c4.1-0.7,7.9-0.4,11.3,0.9c3.5,1.3,6.3,3.5,8.6,6.6c2.3,3.1,3.8,6.9,4.6,11.3l5.7,32.4c0.8,4.5,0.6,8.6-0.5,12.2
		c-1.1,3.7-3.1,6.7-5.9,9.1c-2.8,2.4-6.3,3.9-10.4,4.6l-19.7,3.4C176.6,147.7,176.4,147.6,176.1,147.4z M186.9,132.2l7.5-1.4
		c2.3-0.4,3.9-1.7,5-3.9c1.1-2.2,1.3-4.9,0.8-8.1l-5-28.9c-0.6-3.3-1.7-5.8-3.5-7.5s-3.8-2.4-6.1-1.9l-7.5,1.3
		c-0.3,0.1-0.4,0.3-0.4,0.6l8.6,49.4C186.4,132.1,186.6,132.2,186.9,132.2z"/>
	<path class="st0" d="M226.2,138.6c-0.3-0.2-0.4-0.5-0.5-0.9l-13-74.5c-0.1-0.4,0-0.7,0.2-1c0.2-0.3,0.4-0.5,0.7-0.5l10.7-1.9
		c0.3-0.1,0.6,0,0.8,0.2c0.3,0.2,0.4,0.5,0.5,0.9l13,74.5c0.1,0.4,0,0.7-0.2,1c-0.2,0.3-0.4,0.5-0.7,0.5l-10.7,1.9
		C226.7,138.9,226.4,138.8,226.2,138.6z"/>
	<path class="st0" d="M267.6,78.9l-0.8-3.6c-0.5-2.8-1.6-5-3.4-6.6c-1.8-1.6-3.9-2.2-6.3-1.7c-2.4,0.4-4.2,1.7-5.4,3.9
		c-1.2,2.2-1.5,4.8-0.9,7.9l5.5,31.5c0.5,3.1,1.8,5.4,3.6,7.1c1.9,1.6,4.1,2.2,6.6,1.8c2.4-0.4,4.1-1.6,5.3-3.5
		c1.1-1.9,1.5-4.4,0.9-7.3l-1.2-6.8c-0.1-0.4-0.2-0.5-0.6-0.5l-7.1,1.2l-1.1,0.2l-0.3-1.4l-1.8-10.9c-0.1-0.4-0.1-0.4-0.1-0.4
		l0.9-0.2l19.3-3.4c0.3-0.1,0.6,0,0.8,0.3c0.3,0.2,0.4,0.5,0.5,0.9l3.1,17.5c1.3,7.3,0.4,13.5-2.7,18.5s-7.8,8.1-14.1,9.2
		c-4.2,0.7-8,0.4-11.5-1.1c-3.5-1.4-6.5-3.8-8.8-7.1c-2.4-3.3-4-7.4-4.8-12.2l-5.4-31c-0.8-4.8-0.7-9.1,0.4-13
		c1.1-3.9,3.1-7.1,5.9-9.7c2.8-2.5,6.3-4.2,10.5-4.9c4.1-0.7,7.9-0.4,11.4,1c3.5,1.4,6.5,3.7,8.8,6.9s3.9,7,4.7,11.4l0.4,2.4
		c0.1,0.4,0.2,1.3,0.2,1.3l-1.1,0.2l-10.7,1.9"/>
	<path class="st0" d="M306.5,122.8c-3.6-1.5-6.6-4-9-7.4c-2.4-3.4-4.1-7.7-4.9-12.6l-5.1-29.3c-0.9-4.9-0.7-9.4,0.4-13.5
		c1.1-4.1,3.1-7.4,5.9-10c2.8-2.6,6.4-4.3,10.6-5c4.2-0.7,8.1-0.4,11.7,1.1c3.6,1.5,6.6,4,9,7.4c2.4,3.4,4.1,7.6,4.9,12.5l5.1,29.3
		c0.9,5,0.8,9.5-0.4,13.6c-1.1,4.1-3.1,7.4-6,10c-2.9,2.6-6.4,4.3-10.6,5C313.9,124.7,310,124.3,306.5,122.8z M321.4,106.5
		c1.2-2.3,1.5-5,0.9-8.3L317,67.8c-0.6-3.3-1.8-5.8-3.7-7.6c-1.9-1.8-4.1-2.4-6.7-2c-2.5,0.4-4.3,1.8-5.5,4.1
		c-1.2,2.3-1.5,5.1-0.9,8.4l5.3,30.4c0.6,3.2,1.8,5.7,3.7,7.5c1.9,1.8,4.1,2.4,6.6,2C318.4,110.2,320.2,108.8,321.4,106.5z"/>
</g>
<g>
	<path class="st0" d="M265.9,314.6c-3.9-2.2-6.9-5.3-9-9.4c-2.2-4-3.3-8.8-3.4-14.1l-0.1-8.6c0-0.4,0.1-0.8,0.4-1.1
		c0.3-0.3,0.6-0.5,1-0.5l13.3-0.2c0.4,0,0.7,0.1,1,0.4c0.3,0.3,0.4,0.7,0.4,1.1l0.1,8.7c0,3.4,0.9,6.1,2.7,8.1c1.7,2,4,3,6.9,3
		c2.8,0,5.1-1.1,6.8-3.2c1.7-2.1,2.6-4.8,2.6-8.1l-0.9-63.6c0-0.4,0.1-0.8,0.4-1.1c0.3-0.3,0.6-0.5,1-0.5l13.3-0.2
		c0.4,0,0.7,0.1,1,0.4c0.3,0.3,0.4,0.7,0.4,1.1l0.9,63.5c0.1,5.4-0.9,10.1-3,14.2c-2.1,4.1-5,7.3-8.9,9.6c-3.9,2.3-8.3,3.5-13.3,3.6
		C274.2,317.8,269.8,316.8,265.9,314.6z"/>
	<path class="st0" d="M325,313.4c-4-2.4-7.1-5.7-9.3-10.1c-2.2-4.4-3.4-9.4-3.4-15.1l-0.8-61.6c0-0.4,0.1-0.8,0.4-1.1
		c0.3-0.3,0.6-0.5,1-0.5l13.3-0.2c0.4,0,0.7,0.1,1,0.4c0.3,0.3,0.4,0.7,0.4,1.1l0.8,62.5c0.1,3.7,1,6.7,2.8,8.9
		c1.8,2.2,4.3,3.3,7.3,3.3c3,0,5.4-1.2,7.2-3.5c1.8-2.3,2.7-5.3,2.6-9l-0.8-62.5c0-0.4,0.1-0.8,0.4-1.1c0.3-0.3,0.6-0.5,1-0.5
		l13.3-0.2c0.4,0,0.7,0.1,1,0.4c0.3,0.3,0.4,0.7,0.4,1.1l0.8,61.6c0.1,5.7-0.9,10.8-3,15.2c-2.1,4.4-5.1,7.9-9,10.3
		c-3.9,2.5-8.4,3.8-13.6,3.8C333.5,317,329,315.8,325,313.4z"/>
	<path class="st0" d="M406.8,313.6l-2-8.4c-1.6,0-0.7,0-1,0l-18.4-0.1c-0.3,0-1.1,0-1.1,0l-1.4,8.8c-0.2,0.9-0.6,1.3-1.3,1.3
		l-11.9,0.2c-0.9,0-1.2-0.5-1-1.7l16.5-88.3c0.2-0.9,0.6-1.3,1.4-1.3l14.3-0.2c0.7,0,1.2,0.4,1.4,1.3l18.9,87.9l0.1,0.5
		c0,0.8-0.3,1.2-1.1,1.2l-12,0.2C407.5,314.9,407,314.4,406.8,313.6z M400.4,291.1l-6.3-38l-0.3-1.8l-0.3,2.1l-5.6,37.7 M388.2,291
		l12.2,0.1"/>
	<path class="st0" d="M461.6,273.7l0-49.3c0-0.4,0.1-0.8,0.3-1.1c0.2-0.3,0.5-0.5,0.8-0.5l11.5-0.2c0.3,0,0.6,0.2,0.8,0.4
		c0.2,0.3,0.4,0.7,0.4,1.1l1.2,88c0,0.4-0.1,0.8-0.3,1.1c-0.2,0.3-0.5,0.5-0.8,0.5l-12.1,0.2c-0.7,0-1.1-0.4-1.4-1.2l-20.1-45.1
		 M441.9,267.6l0.7,45c0,0.4-0.1,0.8-0.3,1.1c-0.2,0.3-0.5,0.5-0.8,0.5l-11.5,0.2c-0.3,0-0.6-0.1-0.8-0.4c-0.2-0.3-0.4-0.7-0.4-1.1
		l-1.2-88c0-0.4,0.1-0.8,0.3-1.1c0.2-0.3,0.5-0.5,0.8-0.5l12-0.2c0.7,0,1.1,0.4,1.4,1.2l19.5,49.4"/>
</g>
<g>
	<path d="M451,176.4l4.8-25.5c0-0.2,0.1-0.4,0.3-0.5c0.1-0.1,0.3-0.2,0.5-0.2l5.9,1c0.2,0,0.3,0.1,0.4,0.3c0.1,0.2,0.1,0.4,0.1,0.6
		l-8,45.7c0,0.2-0.1,0.4-0.3,0.5c-0.1,0.1-0.3,0.2-0.5,0.2l-6.3-1.1c-0.3-0.1-0.5-0.3-0.6-0.7l-6-25.3 M441.4,171.3l-4,23.4
		c0,0.2-0.1,0.4-0.3,0.5s-0.3,0.2-0.5,0.2l-6-1c-0.2,0-0.3-0.1-0.4-0.3c-0.1-0.2-0.1-0.4-0.1-0.6l8-45.7c0-0.2,0.1-0.4,0.3-0.5
		c0.1-0.1,0.3-0.2,0.5-0.2l6.2,1.1c0.3,0.1,0.5,0.3,0.6,0.7l5.3,27.5"/>
	<path class="st3" d="M392.5,171.8l7,1.4l0.6,0.1c0,0-0.1,0.5-0.1,0.8l0,0.2c-0.5,2.8-1.4,5.2-2.9,7.2c-1.4,2-3.2,3.4-5.3,4.2
		c-2.1,0.8-4.4,1-6.9,0.6c-2.5-0.4-4.6-1.4-6.3-2.9c-1.7-1.5-2.9-3.5-3.5-5.8c-0.7-2.4-0.7-5-0.2-7.9l3.2-18.3
		c0.5-2.9,1.5-5.3,2.9-7.3c1.4-2,3.2-3.4,5.3-4.3c2.1-0.9,4.4-1.1,6.9-0.6c2.5,0.4,4.6,1.4,6.3,2.9c1.7,1.5,2.9,3.4,3.6,5.7
		c0.7,2.3,0.8,4.8,0.3,7.7l-0.1,0.3l0,0c0,0-0.1,0.8-0.1,0.8l-7.2-0.9l-0.6-0.1l0.2-1.6c0.3-1.8,0.1-3.3-0.6-4.6
		c-0.7-1.3-1.8-2-3.2-2.3c-1.5-0.3-2.7,0.1-3.8,1c-1.1,0.9-1.8,2.3-2.1,4.1l-3.4,19.3c-0.3,1.8-0.1,3.3,0.6,4.6
		c0.7,1.2,1.8,2,3.2,2.2c1.5,0.3,2.7-0.1,3.8-1c1.1-0.9,1.8-2.3,2.1-4.1"/>
	<path class="st3" d="M408.1,188.6c-1.7-1.6-2.9-3.6-3.6-6c-0.7-2.4-0.7-5.1-0.2-8.1l3.1-17.6c0.5-2.9,1.5-5.5,2.9-7.5
		c1.5-2.1,3.2-3.5,5.4-4.4c2.1-0.9,4.5-1.1,7-0.7c2.5,0.4,4.6,1.4,6.4,3c1.7,1.6,2.9,3.6,3.6,6c0.7,2.4,0.7,5.1,0.2,8.1l-3.1,17.6
		c-0.5,3-1.5,5.5-3,7.6c-1.5,2.1-3.3,3.5-5.4,4.4c-2.2,0.9-4.5,1.1-7,0.7C412,191.1,409.8,190.1,408.1,188.6z M419.9,182.4
		c1.1-1.1,1.9-2.5,2.2-4.5l3.2-18.2c0.3-2,0.2-3.7-0.5-5c-0.7-1.4-1.8-2.2-3.4-2.5c-1.5-0.3-2.8,0.1-3.9,1.2
		c-1.1,1.1-1.9,2.6-2.2,4.5l-3.2,18.2c-0.3,1.9-0.2,3.6,0.5,5c0.7,1.4,1.8,2.2,3.3,2.4C417.4,183.8,418.7,183.5,419.9,182.4z"/>
</g>
</svg>
